<?xml version="1.0" standalone="no"?><!DOCTYPE svg PUBLIC "-//W3C//DTD SVG 1.1//EN" "http://www.w3.org/Graphics/SVG/1.1/DTD/svg11.dtd"><svg t="1586699652884" class="icon" viewBox="0 0 1024 1024" version="1.1" xmlns="http://www.w3.org/2000/svg" p-id="25591" xmlns:xlink="http://www.w3.org/1999/xlink" width="300" height="300"><defs><style type="text/css"></style></defs><path d="M529.7 693h-36c-122.9 0-222.8-100-222.8-222.9V286.9C270.9 164 370.9 64 493.7 64h36c122.9 0 222.9 100 222.9 222.9v183.3c0 122.8-100 222.8-222.9 222.8z m-36-598.9C387.5 94.1 301 180.6 301 286.9v183.3c0 106.3 86.4 192.7 192.7 192.7h36c106.3 0 192.8-86.5 192.8-192.7V286.9c0-106.3-86.5-192.7-192.8-192.7h-36z" p-id="25592"></path><path d="M511.7 830.2c-198.5 0-360-161.5-360-360 0-8.3 6.7-15.1 15.1-15.1 8.3 0 15.1 6.7 15.1 15.1 0 181.9 148 329.9 329.9 329.9 181.9 0 329.9-148 329.9-329.9 0-8.3 6.7-15.1 15.1-15.1s15.1 6.7 15.1 15.1c-0.1 198.5-161.7 360-360.2 360z" p-id="25593"></path><path d="M511.7 960c-8.3 0-15.1-6.7-15.1-15.1V815.1c0-8.3 6.7-15.1 15.1-15.1s15.1 6.7 15.1 15.1V945c0 8.3-6.7 15-15.1 15z" p-id="25594"></path></svg>
