<?xml version="1.0" standalone="no"?><!DOCTYPE svg PUBLIC "-//W3C//DTD SVG 1.1//EN" "http://www.w3.org/Graphics/SVG/1.1/DTD/svg11.dtd"><svg t="1586699455450" class="icon" viewBox="0 0 1024 1024" version="1.1" xmlns="http://www.w3.org/2000/svg" p-id="24105" xmlns:xlink="http://www.w3.org/1999/xlink" width="300" height="300"><defs><style type="text/css"></style></defs><path d="M505.57591 192.72271A346.900878 346.900878 0 0 0 158.675031 539.623588v355.894605h706.649938V552.471769A360.391468 360.391468 0 0 0 505.57591 192.72271z m295.508155 638.55458H415.638645v-321.204517H351.397742v321.204517H222.915935V539.623588A282.659975 282.659975 0 0 1 505.57591 256.963614 296.150565 296.150565 0 0 1 801.084065 552.471769z"  p-id="24106"></path><path d="M30.193225 959.759097h963.61355v64.240903H30.193225zM486.303639 0h64.240903v128.481807h-64.240903zM139.788206 148.717691l50.107904-40.214805 77.731494 96.554078-50.107905 40.279046zM764.402509 204.221832l82.935007-96.425596 48.694604 41.885069-82.935006 96.425596z" p-id="24107"></path></svg>