<?xml version="1.0" standalone="no"?><!DOCTYPE svg PUBLIC "-//W3C//DTD SVG 1.1//EN" "http://www.w3.org/Graphics/SVG/1.1/DTD/svg11.dtd"><svg t="1586697948029" class="icon" viewBox="0 0 1024 1024" version="1.1" xmlns="http://www.w3.org/2000/svg" p-id="6815" xmlns:xlink="http://www.w3.org/1999/xlink" width="300" height="300"><defs><style type="text/css"></style></defs><path d="M553.513514 193.72973V83.027027h-110.702703v110.702703l55.351351 27.675675z m-83.027028-83.027027h55.351352v65.868108l-27.675676 13.837838-27.675676-13.837838zM505.357838 648.441081l69.189189-41.513513a13.837838 13.837838 0 0 0-14.114595-23.801082L498.162162 620.488649l-61.993513-37.362163a13.837838 13.837838 0 0 0-14.114595 23.801082l69.189189 41.513513a13.837838 13.837838 0 0 0 14.114595 0z" p-id="6816"></path><path d="M968.648649 857.945946l-442.810811-110.702703v-11.07027l249.081081-99.632432v-96.864865l83.027027-41.513514v-110.702703h-83.027027v-83.027027l138.378378-110.702702-83.027027-110.702703-332.108108-83.027027L166.054054 83.027027 83.027027 193.72973l138.378378 110.702702v83.027027H138.378378v110.702703l83.027027 41.513514V636.540541l249.081081 99.632432v11.07027L55.351351 857.945946l-55.351351 166.054054h1024z m-322.975135-52.307027l-67.805406 80.812973-63.930811-110.702703h8.57946zM830.27027 415.135135v65.868108l-55.351351 27.675676V415.135135zM121.219459 188.748108l61.163244-81.366486L498.162162 28.505946l315.77946 78.875676 61.163243 81.366486-110.702703 88.008649H231.091892zM747.243243 304.432432v60.332973l-249.081081 49.816217-249.081081-49.816217V304.432432zM166.054054 481.003243V415.135135h55.351351v93.543784zM249.081081 553.513514v-159.965406l140.869189 27.675676a13.284324 13.284324 0 0 0-2.490811 7.195675v55.351352a13.837838 13.837838 0 0 0 27.675676 0V428.972973a13.007568 13.007568 0 0 0 0-2.214054l78.045406 15.498378h11.07027l78.045405-15.498378a13.007568 13.007568 0 0 0 0 2.214054v55.351351a13.837838 13.837838 0 0 0 27.675676 0v-55.351351a13.284324 13.284324 0 0 0-2.490811-7.195676l140.869189-27.675675v224.172973l-249.081081 99.632432-249.081081-99.632432z m225.003243 221.405405h6.365406l-73.617298 114.577297-74.724324-76.661621zM38.469189 996.324324l38.469189-115.407567L213.102703 844.108108l-37.638919 72.233514 83.027027 79.705946z m261.258379 0l-89.945946-85.241081 39.852973-76.108108 52.03027-13.837838 117.621621 120.389189 52.583784 55.351352z m138.378378-74.17081l-12.177297-12.454055 70.019459-109.042162 61.993514 108.488649-8.57946 10.24-52.03027 63.10054z m83.027027 74.17081l48.709189-57.842162 22.140541-26.015135 83.027027-99.078919 45.941621 11.347027 62.270271 83.027027-110.702703 88.285406z m300.004324-83.027027l-57.288648-78.045405 183.489729 45.941622L985.807568 996.324324h-267.623784z" p-id="6817"></path></svg>