<?xml version="1.0" standalone="no"?><!DOCTYPE svg PUBLIC "-//W3C//DTD SVG 1.1//EN" "http://www.w3.org/Graphics/SVG/1.1/DTD/svg11.dtd"><svg t="1586699897441" class="icon" viewBox="0 0 1024 1024" version="1.1" xmlns="http://www.w3.org/2000/svg" p-id="37577" xmlns:xlink="http://www.w3.org/1999/xlink" width="300" height="300"><defs><style type="text/css"></style></defs><path d="M736.6 65.2H287.4c-112 0-203.2 91.1-203.2 203.2v487.4c0 112 91.1 203.2 203.2 203.2h449.2c112 0 203.2-91.1 203.2-203.2V268.3c0-112-91.2-203.1-203.2-203.1z m149.3 690.5c0 82.3-67 149.3-149.3 149.3H287.4c-82.3 0-149.3-67-149.3-149.3V268.3c0-82.3 67-149.3 149.3-149.3h449.2c82.3 0 149.3 67 149.3 149.3v487.4z"  p-id="37578"></path><path d="M350.1 433.6c-13.8 0-24.9 11.2-24.9 24.9v107c0 13.8 11.2 24.9 24.9 24.9s24.9-11.2 24.9-24.9v-107c0-13.7-11.2-24.9-24.9-24.9zM458 332.7c-13.8 0-24.9 11.2-24.9 24.9v308.8c0 13.8 11.2 24.9 24.9 24.9 13.8 0 24.9-11.2 24.9-24.9V357.6c0-13.7-11.1-24.9-24.9-24.9zM566 384c-13.8 0-24.9 11.2-24.9 24.9v206.2c0 13.8 11.2 24.9 24.9 24.9 13.8 0 24.9-11.2 24.9-24.9V408.9c0-13.7-11.2-24.9-24.9-24.9zM673.9 441.6c-13.8 0-24.9 11.2-24.9 24.9v90.9c0 13.8 11.2 24.9 24.9 24.9 13.8 0 24.9-11.2 24.9-24.9v-90.9c0-13.7-11.1-24.9-24.9-24.9z" p-id="37579"></path></svg>